<svg width="80" height="65" viewBox="0 0 80 65" fill="none" xmlns="http://www.w3.org/2000/svg">
<path d="M50.6119 37.7331C50.6119 43.5975 45.8645 48.345 40 48.345C34.1355 48.345 29.3881 43.5975 29.3881 37.7331C29.3881 31.8686 34.1355 27.1211 40 27.1211C45.8645 27.1211 50.6119 31.8686 50.6119 37.7331ZM72.3285 11.1376C76.5667 11.1376 80 14.5708 80 18.809V38.9158V55.9671C80 60.4846 76.3368 64.1478 71.8193 64.1478H8.1807C3.66324 64.1478 0 60.4846 0 55.9671V38.8994V18.809C0 14.5708 3.43326 11.1376 7.67146 11.1376H23.0144L23.7372 8.08214C24.8378 3.35113 29.0595 0 33.922 0H46.0945C50.9569 0 55.1786 3.35113 56.2793 8.08214L56.9856 11.1376H72.3285ZM16 22.2094C16 20.0903 14.2752 18.3655 12.1561 18.3655C10.0205 18.3655 8.29569 20.0903 8.29569 22.2094C8.29569 24.3285 10.0205 26.0534 12.1396 26.0534C14.2752 26.0698 16 24.345 16 22.2094ZM58.924 37.7331C58.924 27.2854 50.4476 18.809 40 18.809C29.5524 18.809 21.076 27.2854 21.076 37.7331C21.076 48.1807 29.5524 56.6571 40 56.6571C50.4476 56.6571 58.924 48.1807 58.924 37.7331Z" fill="#8C8C8C"/>
</svg>
