 <svg width="50" height="16" viewBox="0 0 50 16" fill="none" xmlns="http://www.w3.org/2000/svg">
<rect x="35.0231" y="1.84164" width="4.14747" height="0.921659" rx="0.460829" fill="#F9FCFC"/>
<rect x="45.6221" y="12.9016" width="4.37788" height="0.921659" rx="0.460829" fill="#F9FCFC"/>
<path d="M35.5991 1.84164L39.215 1.84164L49.4241 13.8603L45.6904 13.8603L35.5991 1.84164Z" fill="#F9FCFC"/>
<path d="M35.5991 1.84164L39.215 1.84164L49.4241 13.8603L45.6904 13.8603L35.5991 1.84164Z" fill="#F9FCFC"/>
<path d="M40.7834 7.83244L41.7051 9.09972L48.8479 1.82396L46.6842 1.82396L40.7834 7.83244Z" fill="#F9FCFC"/>
<path d="M40.7834 7.83244L41.7051 9.09972L48.8479 1.82396L46.6842 1.82396L40.7834 7.83244Z" fill="#F9FCFC"/>
<path d="M41.2442 9.90617L40.0921 8.75409L35.1382 13.8232L37.3271 13.8232L41.2442 9.90617Z" fill="#F9FCFC"/>
<path d="M41.2442 9.90617L40.0921 8.75409L35.1382 13.8232L37.3271 13.8232L41.2442 9.90617Z" fill="#F9FCFC"/>
<rect x="19.1245" y="1.84164" width="3.22581" height="11.9816" rx="1" fill="#F9FCFC"/>
<rect x="19.1245" y="12.6711" width="10.1382" height="1.15207" rx="0.576037" fill="#F9FCFC"/>
<rect x="19.1245" y="6.91077" width="8.75576" height="0.921659" rx="0.460829" fill="#F9FCFC"/>
<rect x="19.1245" y="1.84164" width="10.1382" height="1.15207" rx="0.576037" fill="#F9FCFC"/>
<rect y="1.84164" width="12.6728" height="0.921659" rx="0.460829" fill="#F9FCFC"/>
<rect x="4.83862" y="2.76331" width="2.99539" height="11.0599" rx="1" fill="#F9FCFC"/>
</svg>
